<?xml version="1.0" standalone="no"?>
<!DOCTYPE svg PUBLIC "-//W3C//DTD SVG 20010904//EN"
 "http://www.w3.org/TR/2001/REC-SVG-20010904/DTD/svg10.dtd">
<svg version="1.0" xmlns="http://www.w3.org/2000/svg"
 width="1000.000000pt" height="1000.000000pt" viewBox="0 0 1000.000000 1000.000000"
 preserveAspectRatio="xMidYMid meet">
<metadata>
Created by potrace 1.11, written by Peter Selinger 2001-2013
</metadata>
<g transform="translate(0.000000,1000.000000) scale(0.100000,-0.100000)"
fill="#000000" stroke="none">
<path d="M4956 9963 c-4 -4 -17 -8 -29 -10 -12 -2 -80 -22 -152 -44 -71 -23
-134 -42 -140 -44 -5 -1 -17 -5 -25 -8 -20 -7 -93 -30 -105 -33 -5 -1 -53 -17
-105 -34 -52 -18 -99 -33 -105 -34 -5 -1 -32 -9 -60 -18 -103 -34 -532 -171
-580 -185 -27 -8 -57 -17 -65 -21 -8 -3 -18 -6 -22 -7 -5 -2 -10 -4 -13 -5 -3
-1 -8 -3 -12 -4 -9 -2 3 2 -258 -81 -214 -68 -247 -78 -255 -80 -3 -1 -12 -4
-20 -7 -23 -9 -339 -110 -353 -112 -7 -2 -19 -6 -27 -9 -67 -25 -174 -56 -181
-51 -5 3 -9 1 -9 -5 0 -5 -15 -13 -33 -16 -17 -4 -36 -10 -42 -13 -5 -4 -14
-7 -20 -7 -5 0 -84 -24 -175 -54 -91 -29 -214 -69 -275 -88 -60 -19 -137 -43
-170 -54 -33 -11 -76 -24 -95 -30 -54 -16 -143 -52 -159 -64 -127 -96 -184
-238 -151 -377 16 -65 39 -107 88 -159 l37 -41 0 -444 c0 -291 -3 -444 -10
-445 -141 -12 -244 -75 -299 -185 -36 -71 -38 -91 -41 -374 -1 -140 -6 -272
-10 -294 -3 -21 -9 -48 -11 -60 -2 -11 -7 -41 -10 -66 -3 -25 -8 -48 -10 -52
-3 -4 -7 -26 -10 -50 -9 -78 -15 -91 -77 -178 -34 -47 -74 -103 -88 -125 -60
-91 -99 -156 -99 -164 0 -5 -4 -11 -8 -13 -9 -3 -102 -191 -142 -283 -11 -27
-25 -59 -30 -70 -38 -82 -129 -379 -145 -474 -3 -19 -8 -38 -10 -41 -3 -4 -7
-29 -10 -56 -4 -26 -8 -51 -10 -54 -2 -4 -7 -29 -10 -56 -3 -27 -7 -65 -10
-84 -18 -129 -25 -347 -13 -409 11 -63 55 -127 112 -164 57 -36 64 -39 128
-41 27 0 48 -5 48 -9 0 -4 8 -4 17 2 10 5 26 5 39 1 12 -5 24 -6 27 -3 9 9 87
10 87 1 0 -5 8 -4 18 1 10 6 24 6 32 1 8 -5 17 -7 20 -5 4 2 7 -126 7 -285
l-1 -289 -27 -10 c-15 -5 -29 -7 -32 -5 -2 2 -10 -2 -17 -11 -7 -8 -21 -15
-31 -15 -11 0 -19 -3 -19 -8 0 -4 -13 -13 -28 -20 -16 -6 -38 -21 -50 -32 -12
-11 -25 -20 -29 -20 -11 0 -153 -147 -153 -159 0 -5 -4 -11 -8 -13 -26 -11
-104 -177 -128 -273 -2 -5 -6 -21 -10 -35 -3 -14 -7 -78 -9 -142 -3 -127 10
-202 50 -301 l23 -59 -29 -41 c-16 -23 -30 -51 -32 -62 -1 -11 -5 -24 -8 -30
-6 -11 -3 -172 5 -250 22 -219 99 -472 204 -670 28 -54 149 -243 167 -261 5
-6 26 -30 45 -55 121 -150 340 -334 511 -427 30 -16 71 -39 92 -50 20 -12 37
-20 37 -17 0 3 15 -4 33 -14 71 -40 336 -120 446 -135 22 -3 60 -9 84 -12 35
-5 95 -9 227 -16 8 0 34 2 56 4 23 2 50 1 60 -3 11 -3 29 -3 42 2 14 5 22 5
22 -2 0 -6 6 -6 18 0 10 6 24 6 32 1 8 -5 18 -6 22 -4 8 5 67 6 175 3 28 -1
55 1 60 4 4 2 17 1 28 -3 11 -4 30 -4 43 1 14 5 22 5 22 -2 0 -6 6 -6 18 0 10
5 24 6 31 1 8 -4 25 -5 40 -1 28 7 90 6 98 -3 3 -2 16 -1 29 4 16 6 24 6 24
-1 0 -6 6 -6 18 0 10 5 24 6 31 1 8 -4 25 -5 40 -1 14 3 44 5 66 4 82 -5 144
-5 152 0 4 2 17 1 28 -3 11 -4 30 -4 43 1 14 5 22 5 22 -2 0 -6 6 -6 18 0 10
5 24 6 31 1 8 -4 25 -5 40 -1 28 7 90 6 98 -3 3 -2 16 -1 29 4 16 6 24 6 24
-1 0 -6 6 -6 18 0 10 6 24 6 32 1 8 -5 18 -6 22 -4 8 5 67 6 175 3 28 -1 55 1
60 4 4 2 17 1 28 -3 11 -4 30 -4 43 1 14 5 22 5 22 -2 0 -6 6 -6 18 0 10 5 24
6 31 1 8 -4 25 -5 40 -1 28 7 90 6 98 -3 3 -2 16 -1 29 4 16 6 24 6 24 -1 0
-6 6 -6 18 0 10 5 24 6 31 1 8 -4 25 -5 40 -1 14 3 44 5 66 4 82 -5 144 -5
152 0 4 2 17 1 28 -3 11 -4 30 -4 43 1 14 5 22 5 22 -2 0 -6 6 -6 18 0 10 5
24 6 31 1 8 -4 25 -5 40 -1 28 7 90 6 98 -3 3 -2 16 -1 29 4 16 6 24 6 24 -1
0 -6 6 -6 18 0 10 6 24 6 32 1 8 -5 18 -6 22 -4 8 5 67 6 175 3 28 -1 55 1 60
4 4 2 17 1 28 -3 11 -4 30 -4 43 1 14 5 22 5 22 -2 0 -6 6 -6 18 0 10 5 24 6
31 1 8 -4 25 -5 40 -1 28 7 90 6 98 -3 3 -2 16 -1 29 4 16 6 24 6 24 -1 0 -6
6 -6 18 0 10 5 24 6 31 1 8 -4 25 -5 40 -1 14 3 44 5 66 4 82 -5 144 -5 152 0
4 2 17 1 28 -3 11 -4 30 -4 43 1 14 5 22 5 22 -2 0 -6 6 -6 18 0 10 5 24 6 31
1 8 -4 25 -5 40 -1 28 7 90 6 98 -3 3 -2 16 -1 29 4 16 6 24 6 24 -1 0 -6 6
-6 18 0 10 6 24 6 32 1 8 -5 18 -6 22 -4 8 5 67 6 175 3 28 -1 55 1 60 4 4 2
17 1 28 -3 11 -4 30 -4 43 1 14 5 22 5 22 -2 0 -6 6 -6 18 0 10 5 24 6 31 1 8
-4 25 -5 40 -1 28 7 90 6 98 -3 3 -2 16 -1 29 4 16 6 24 6 24 -1 0 -6 6 -6 18
0 10 5 24 6 31 1 8 -4 25 -5 40 -1 14 3 44 5 66 4 82 -5 144 -5 152 0 4 2 17
1 28 -3 11 -4 30 -4 43 1 14 5 22 5 22 -2 0 -6 6 -6 18 0 10 5 24 6 31 1 8 -4
25 -5 40 -1 28 7 90 6 98 -3 3 -2 16 -1 29 4 16 6 24 6 24 -1 0 -6 6 -6 18 0
10 6 24 6 32 1 8 -5 17 -7 22 -4 4 2 68 7 143 9 75 2 140 7 146 10 5 4 28 8
52 11 23 2 78 13 122 24 44 11 90 23 103 25 52 12 203 72 296 117 94 47 277
161 310 193 8 8 17 15 20 15 12 0 215 195 256 246 115 145 199 268 231 342 8
17 17 32 21 32 5 0 7 3 6 8 -1 4 11 34 26 67 95 205 156 477 160 717 2 77 -1
95 -26 145 -15 32 -33 66 -40 75 -9 12 -9 23 -1 40 39 81 61 184 63 293 1 63
-8 163 -16 176 -3 6 -7 20 -9 32 -7 48 -16 71 -59 160 -25 50 -59 107 -76 125
-16 18 -30 35 -30 38 0 5 -81 84 -124 120 -14 12 -28 19 -31 16 -3 -3 -5 0 -5
6 0 7 -7 12 -15 12 -8 0 -15 4 -15 8 0 4 -37 25 -83 46 l-83 39 1 285 0 285
23 8 c14 5 22 5 22 -2 0 -6 6 -7 17 0 10 5 26 5 39 1 12 -5 24 -6 27 -3 9 8
87 10 87 1 0 -4 11 -3 25 2 15 6 26 6 30 -1 4 -5 11 -6 17 -3 6 4 27 8 46 10
18 2 40 8 48 15 8 6 14 8 14 3 0 -5 4 -4 8 1 4 6 18 16 32 23 35 19 89 93 104
144 16 55 11 300 -8 427 -2 15 -7 48 -11 74 -4 27 -8 57 -10 67 -2 9 -6 33 -9
52 -3 19 -15 74 -26 124 -12 49 -22 97 -23 107 -1 9 -4 17 -7 17 -4 0 -7 6 -7
13 0 6 -11 46 -23 87 -13 41 -24 77 -25 80 -1 3 -7 19 -14 35 -7 17 -14 37
-16 45 -11 49 -128 298 -197 418 -26 46 -48 88 -48 93 0 5 -4 9 -10 9 -5 0
-10 5 -10 10 0 9 -36 66 -50 80 -3 3 -14 19 -24 35 -19 30 -122 170 -141 191
-5 6 -32 37 -60 70 -109 128 -347 350 -459 429 -16 11 -37 28 -48 38 -10 9
-22 17 -28 17 -5 0 -10 5 -10 10 0 6 -5 10 -10 10 -10 0 -69 37 -80 51 -9 10
-180 109 -189 109 -5 0 -11 3 -13 8 -11 24 -499 232 -546 232 -7 0 -10 5 -6
11 4 6 7 193 7 415 0 223 4 407 8 410 5 3 9 0 9 -6 0 -6 4 -8 10 -5 12 7 23
10 175 36 66 11 131 22 145 25 14 3 41 7 60 10 19 2 58 9 85 14 46 10 310 54
380 65 17 2 48 8 70 12 22 4 45 8 50 9 39 6 75 18 75 25 0 5 3 8 8 7 12 -5 84
44 113 77 56 61 83 132 86 223 1 46 -3 95 -9 110 -30 74 -40 92 -77 133 -50
58 -127 98 -266 139 -60 18 -119 36 -130 40 -43 17 -247 82 -265 85 -7 1 -320
102 -423 136 -48 16 -95 31 -105 33 -9 1 -24 6 -32 9 -8 4 -66 22 -128 42 -62
19 -122 39 -132 45 -11 6 -20 8 -20 6 0 -3 -19 2 -42 10 -24 9 -51 17 -60 19
-21 5 -201 63 -253 82 -22 8 -47 16 -55 18 -17 3 -176 53 -200 62 -8 4 -19 5
-24 4 -4 -1 -14 3 -20 8 -7 6 -23 13 -37 15 -13 3 -25 5 -26 7 -2 1 -6 2 -10
3 -19 4 -280 88 -298 96 -17 7 -36 13 -85 25 -3 0 -36 12 -75 25 -38 13 -72
25 -75 25 -7 1 -38 11 -190 60 -258 83 -435 139 -445 141 -5 1 -32 9 -58 19
-27 9 -70 18 -97 20 -27 2 -53 6 -58 9 -5 3 -12 2 -16 -1z m68 -340 c3 -4 12
-8 19 -9 13 -2 141 -41 167 -51 8 -3 20 -7 26 -8 6 -2 85 -27 175 -56 90 -29
166 -54 169 -54 3 0 52 -16 110 -35 58 -19 107 -34 110 -35 35 -9 127 -39 135
-43 6 -4 15 -7 20 -7 6 -1 17 -4 25 -7 33 -14 195 -62 203 -60 4 1 7 -2 7 -6
0 -4 8 -8 18 -9 9 -1 51 -13 92 -26 41 -14 163 -53 270 -87 107 -34 215 -68
240 -77 25 -8 52 -16 60 -18 8 -2 77 -24 154 -49 76 -25 142 -46 147 -46 4 0
20 -5 36 -12 15 -6 33 -12 38 -13 16 -4 208 -65 225 -72 8 -3 20 -7 26 -8 6
-2 69 -22 140 -45 71 -23 135 -43 144 -45 8 -2 71 -22 140 -45 69 -23 132 -43
141 -45 9 -2 39 -11 65 -20 27 -9 54 -18 59 -19 6 -2 43 -13 83 -25 54 -17 72
-27 72 -41 0 -17 -11 -21 -95 -35 -11 -2 -47 -8 -80 -14 -33 -6 -76 -13 -95
-16 -19 -3 -46 -8 -60 -10 -47 -10 -74 -15 -115 -21 -22 -4 -49 -8 -60 -10
-11 -2 -36 -6 -55 -8 -19 -3 -46 -8 -60 -11 -14 -3 -42 -8 -64 -11 -21 -3 -48
-8 -60 -10 -11 -2 -37 -7 -56 -10 -39 -6 -70 -11 -115 -20 -16 -3 -43 -7 -60
-9 -16 -2 -47 -8 -69 -14 -37 -9 -159 -7 -194 3 -10 3 -39 7 -67 10 -93 11
-135 16 -178 22 -113 16 -183 -14 -217 -95 -31 -75 4 -174 72 -205 45 -20 62
-24 141 -31 37 -3 78 -9 90 -11 12 -3 42 -7 66 -8 24 -2 46 -9 50 -14 3 -6 6
-158 6 -339 l0 -328 -2069 0 c-1933 0 -2069 1 -2075 17 -7 20 -6 646 1 654 3
2 25 7 49 10 24 3 55 7 69 9 14 2 47 6 74 9 26 3 65 8 85 10 20 3 61 8 91 11
30 3 69 8 85 10 17 2 50 7 75 10 25 3 54 7 65 9 11 2 49 7 85 10 36 4 77 8 90
11 14 3 52 7 85 10 33 3 67 8 75 10 8 2 44 7 80 10 36 4 76 8 90 10 14 2 50 7
80 10 49 6 95 12 220 29 19 3 62 8 95 11 33 3 74 8 91 11 41 6 146 17 279 29
68 6 336 6 410 0 87 -7 154 -14 205 -21 25 -3 65 -7 90 -9 25 -2 45 -4 45 -5
0 -3 46 -9 100 -14 51 -4 114 -12 175 -22 19 -3 53 -8 75 -10 78 -7 140 -16
148 -21 4 -2 7 0 7 5 0 6 8 8 18 6 23 -6 81 33 107 72 42 63 27 159 -34 212
-27 23 -89 48 -97 39 -3 -2 -22 -1 -42 4 -20 5 -64 11 -98 14 -33 4 -72 8 -85
10 -13 2 -46 6 -74 10 -27 4 -66 9 -85 10 -19 2 -35 4 -35 5 0 2 -26 5 -124
14 -41 4 -77 9 -80 10 -32 19 -611 29 -740 12 -35 -4 -80 -10 -100 -12 -20 -2
-52 -6 -71 -8 -41 -6 -133 -17 -175 -21 -16 -2 -30 -4 -30 -5 0 -1 -18 -3 -40
-5 -74 -7 -214 -24 -240 -29 -11 -2 -54 -7 -95 -11 -41 -4 -77 -8 -80 -10 -3
-1 -32 -6 -65 -9 -33 -4 -78 -9 -100 -12 -39 -6 -63 -9 -155 -18 -43 -5 -63
-7 -175 -23 -27 -3 -60 -6 -72 -7 -13 0 -23 -2 -23 -5 0 -4 -15 -6 -32 -6 -18
-1 -55 -4 -83 -7 -27 -4 -77 -10 -110 -13 -33 -4 -71 -9 -85 -11 -23 -4 -81
-11 -155 -18 -33 -4 -90 4 -230 29 -108 19 -128 23 -179 30 -21 4 -46 8 -55
10 -9 1 -36 6 -61 10 -25 4 -54 9 -65 11 -11 3 -38 7 -60 10 -22 3 -51 8 -65
11 -14 3 -34 7 -45 8 -11 1 -38 5 -60 10 -62 13 -146 27 -176 30 -8 1 -33 6
-55 10 -21 4 -46 9 -54 10 -26 3 -49 20 -42 31 6 9 142 59 185 68 7 2 20 6 29
10 9 4 25 9 35 11 10 2 19 4 21 5 1 2 7 4 12 5 6 1 12 4 15 5 3 1 8 3 13 4 4
1 39 12 77 25 39 13 78 24 87 26 9 2 27 9 40 16 13 7 23 11 23 9 0 -2 18 2 40
9 50 16 59 18 65 19 3 1 39 13 80 28 41 14 82 27 90 29 8 2 80 24 159 50 80
26 149 48 155 50 6 1 18 4 26 7 56 21 316 101 327 101 7 0 13 4 13 9 0 4 3 7
8 6 8 -2 195 55 255 77 20 8 39 14 42 14 3 -1 18 3 33 8 67 24 98 34 112 38 8
2 44 13 80 24 36 11 68 21 72 21 4 1 23 7 43 16 19 8 37 14 40 14 3 0 10 2 17
5 46 15 315 99 323 101 6 1 42 14 82 27 39 14 74 23 77 19 3 -3 6 0 6 6 0 7 3
11 8 10 9 -2 74 13 87 21 6 3 13 6 18 7 4 1 9 3 12 4 3 1 8 3 13 4 4 1 18 6
32 10 85 27 467 148 475 151 18 6 52 5 59 -2z m-3124 -1469 c14 -2 36 -5 50
-9 54 -12 76 -16 100 -20 14 -2 41 -6 60 -9 19 -3 46 -7 60 -9 14 -2 39 -7 55
-10 17 -3 46 -9 65 -11 19 -3 46 -8 60 -10 14 -3 70 -12 125 -21 55 -9 103
-20 108 -24 4 -4 6 -184 5 -400 l-3 -393 -130 -44 c-159 -54 -144 -49 -178
-62 -16 -7 -30 -12 -32 -12 -3 0 -29 -12 -60 -26 -31 -15 -59 -24 -62 -20 -4
4 -9 19 -10 34 -8 60 -99 202 -130 202 -6 0 -13 4 -15 8 -9 22 -123 60 -184
62 -9 0 -12 106 -12 396 l0 396 51 -7 c29 -4 63 -9 77 -11z m-109 -1116 c1
-16 1 -399 0 -413 -1 -8 -296 -13 -356 -6 -6 1 -10 78 -9 214 1 116 2 213 3
215 0 1 82 2 181 2 137 0 180 -3 181 -12z m4984 -242 c28 -3 75 -11 105 -16
30 -5 71 -12 90 -15 115 -19 357 -90 447 -131 17 -8 34 -14 37 -14 9 0 240
-112 246 -119 3 -3 26 -17 53 -31 26 -13 47 -28 47 -32 0 -5 4 -8 10 -8 5 0
35 -17 66 -37 31 -21 68 -46 82 -55 14 -9 28 -21 31 -26 3 -5 13 -13 22 -18
67 -38 323 -287 415 -404 32 -41 61 -77 64 -80 9 -9 117 -174 134 -205 9 -16
22 -39 28 -50 32 -52 43 -70 43 -75 1 -3 17 -39 37 -80 19 -41 44 -95 55 -120
26 -58 80 -217 87 -252 2 -15 7 -31 10 -36 5 -8 9 -27 22 -92 2 -14 7 -32 11
-40 3 -8 7 -24 8 -35 1 -11 5 -33 8 -50 4 -16 9 -48 12 -70 3 -22 7 -50 9 -62
3 -12 -1 -23 -7 -25 -18 -6 -8007 -4 -8008 2 -2 5 11 123 16 150 1 8 8 42 15
75 7 33 14 67 15 75 2 8 4 17 5 20 1 3 2 8 1 13 -2 11 3 9 71 -26 63 -32 88
-39 140 -41 16 -1 28 -3 28 -6 0 -3 11 -5 25 -5 14 0 25 3 25 7 0 4 14 3 30
-2 17 -5 30 -5 30 0 0 5 13 5 30 0 17 -5 30 -5 30 0 0 5 13 5 30 0 17 -5 30
-5 30 0 0 5 13 5 30 0 18 -5 30 -5 30 0 0 6 10 6 25 0 14 -5 27 -5 30 0 3 5
18 5 35 0 17 -5 30 -5 30 0 0 5 13 5 30 0 17 -5 30 -5 30 0 0 5 13 5 30 0 18
-5 30 -5 30 0 0 6 10 6 25 0 14 -5 27 -5 30 0 3 5 18 5 35 0 17 -5 30 -5 30 0
0 5 13 5 30 0 17 -5 30 -5 30 0 0 5 13 5 29 0 16 -4 32 -6 35 -2 3 3 23 7 43
9 112 12 238 121 278 242 18 56 26 164 13 192 -4 8 -9 39 -12 67 -2 28 -7 55
-9 59 -3 4 -8 31 -11 58 -4 28 -9 64 -12 80 -9 52 -44 249 -49 275 -3 14 -8
43 -11 65 -3 22 -7 51 -9 65 -5 28 -13 65 -15 65 -1 0 -3 16 -5 35 -2 19 -6
49 -9 65 -3 17 -7 41 -9 55 -8 42 -27 153 -32 185 -3 17 -7 39 -10 51 -6 27
21 46 155 111 100 48 278 122 310 128 8 2 43 12 78 24 108 35 337 79 456 87
38 2 71 6 73 8 7 7 3506 -1 3558 -8z m-4960 -384 c6 -1 12 -14 13 -29 3 -28 6
-48 17 -113 3 -19 13 -73 21 -120 7 -47 16 -96 19 -110 3 -14 7 -38 10 -55 12
-80 15 -102 20 -125 6 -29 16 -86 20 -115 1 -11 17 -103 34 -205 18 -102 34
-196 36 -210 15 -90 15 -97 1 -109 -11 -10 -107 -13 -393 -13 -208 0 -385 3
-394 6 -19 8 -17 68 6 186 3 14 8 39 10 55 6 31 30 167 40 220 8 43 15 85 21
125 5 34 8 52 19 108 3 15 6 34 6 42 1 8 5 35 10 60 11 56 16 87 29 170 6 36
13 76 16 90 2 14 7 40 10 59 10 57 13 71 18 79 4 6 371 10 411 4z m-314 -2336
c12 7 158 8 165 1 4 -3 17 -2 30 3 14 6 26 6 29 -1 4 -5 11 -6 18 -2 13 8 223
7 237 -2 5 -3 10 -3 10 2 0 4 13 8 29 8 16 0 27 -3 24 -7 -2 -5 7 -4 21 2 16
6 27 6 31 0 4 -6 14 -7 23 -2 9 4 31 6 47 5 43 -5 97 -3 107 3 4 3 8 0 8 -6 0
-7 6 -8 18 -2 9 5 26 6 37 2 11 -4 31 -3 45 2 14 5 26 9 27 8 14 -8 63 -17 63
-12 0 4 13 7 29 7 16 0 27 -3 25 -7 -3 -4 5 -4 18 1 13 5 33 5 46 0 12 -5 22
-5 22 -1 0 4 11 7 25 7 14 0 25 -3 25 -6 0 -3 23 -3 50 1 28 4 50 3 50 -2 0
-5 8 -5 18 0 9 5 26 6 37 2 11 -4 29 -4 40 0 27 10 30 10 65 0 16 -5 30 -6 30
-2 0 4 13 7 29 7 16 0 27 -3 24 -7 -2 -5 7 -4 21 2 16 6 27 6 31 0 4 -6 14 -7
23 -2 9 4 31 6 47 5 39 -4 107 -3 115 2 3 2 12 0 20 -5 7 -4 24 -4 36 0 14 6
26 5 29 -1 4 -5 11 -6 17 -3 13 8 237 8 245 1 3 -3 16 -2 29 3 14 6 26 6 29
-1 4 -5 11 -6 17 -3 16 10 218 11 218 1 0 -4 8 -4 18 1 9 5 26 6 37 2 11 -4
29 -4 40 0 27 10 30 10 65 0 16 -5 30 -6 30 -2 0 4 13 7 29 7 16 0 27 -3 25
-7 -3 -4 5 -4 18 1 13 5 33 5 46 0 12 -5 22 -5 22 -1 0 4 11 7 25 7 14 0 25
-3 25 -6 0 -3 23 -3 50 1 28 4 50 2 50 -2 0 -5 8 -5 17 1 10 5 26 5 39 1 12
-5 24 -7 27 -4 8 9 77 10 77 2 0 -5 8 -5 18 0 9 5 26 6 37 2 11 -4 29 -4 40 0
27 10 30 10 65 0 16 -5 30 -6 30 -2 0 4 13 7 29 7 16 0 27 -3 25 -7 -3 -4 5
-4 18 1 13 5 33 5 46 0 12 -5 22 -5 22 -1 0 4 11 7 25 7 14 0 25 -3 25 -6 0
-3 23 -3 50 1 28 4 50 2 50 -2 0 -5 8 -5 17 1 10 5 26 5 39 1 12 -5 24 -7 27
-4 8 9 77 10 77 2 0 -5 8 -5 18 0 9 5 26 6 37 2 11 -4 29 -4 40 0 27 10 30 10
65 0 16 -5 30 -6 30 -2 0 4 13 7 29 7 16 0 27 -3 25 -7 -3 -4 5 -4 18 1 13 5
33 5 46 0 12 -5 22 -5 22 -1 0 4 11 7 25 7 14 0 25 -3 25 -6 0 -3 23 -3 50 1
28 4 50 2 50 -2 0 -5 8 -5 17 1 10 5 26 5 39 1 12 -5 24 -7 27 -4 8 9 77 10
77 2 0 -5 8 -5 18 0 9 5 26 6 37 2 11 -4 29 -4 40 0 27 10 30 10 65 0 16 -5
30 -6 30 -2 0 4 13 7 29 7 16 0 27 -3 25 -7 -3 -4 5 -4 18 1 13 5 33 5 46 0
12 -5 22 -5 22 -1 0 4 11 7 25 7 14 0 25 -3 25 -6 0 -3 23 -3 50 1 28 4 50 2
50 -2 0 -5 8 -5 17 1 10 5 26 5 39 1 12 -5 24 -7 27 -4 8 8 87 10 99 3 6 -4
22 -3 34 1 14 6 26 5 29 -1 4 -5 11 -6 17 -3 13 8 237 8 245 1 3 -3 16 -2 29
3 14 6 26 6 29 -1 4 -5 11 -6 18 -2 13 8 223 7 237 -2 5 -3 10 -3 10 2 0 4 13
8 29 8 16 0 27 -3 24 -7 -2 -5 7 -4 21 2 16 6 27 6 31 0 4 -6 14 -7 23 -2 9 4
31 6 47 5 43 -5 97 -3 107 3 4 3 8 0 8 -6 0 -7 6 -8 18 -2 9 5 26 6 37 2 11
-4 29 -4 40 0 27 10 30 10 65 0 16 -5 30 -6 30 -2 0 4 13 7 29 7 16 0 27 -3
25 -7 -3 -4 5 -4 18 1 13 5 33 5 46 0 12 -5 22 -5 22 -1 0 4 11 7 25 7 14 0
25 -3 25 -6 0 -3 23 -3 50 1 28 4 50 3 50 -2 0 -5 8 -5 18 0 9 5 26 6 37 2 11
-4 29 -4 40 0 27 10 30 10 65 0 16 -5 30 -6 30 -2 0 4 13 7 29 7 16 0 27 -3
24 -7 -2 -5 7 -4 21 2 16 6 27 6 31 0 4 -6 14 -7 23 -2 9 4 31 6 47 5 17 -2
35 -4 40 -4 6 -1 30 -1 55 0 25 1 52 1 62 0 15 0 16 -25 15 -266 l-2 -267
-1145 -1 c-1197 -2 -1156 0 -1285 -39 -68 -20 -173 -79 -234 -131 -38 -32
-380 -362 -713 -687 -55 -54 -102 -98 -106 -98 -3 0 -58 52 -121 115 -365 361
-663 653 -689 675 -80 68 -206 126 -326 152 -35 7 -407 11 -1191 12 l-1140 2
-2 264 c-1 192 2 267 10 272 7 4 14 3 15 -2 2 -6 8 -8 13 -4z m2238 -1086 c30
-14 105 -80 229 -203 102 -100 192 -190 201 -201 9 -10 35 -37 59 -59 23 -22
42 -43 42 -46 0 -3 -701 -5 -1557 -5 -857 1 -1558 3 -1558 4 0 1 -13 4 -30 6
-16 3 -48 16 -70 29 -208 122 -175 416 55 486 14 4 601 8 1305 8 1259 1 1281
0 1324 -19z m5032 7 c206 -71 260 -308 104 -453 -35 -32 -79 -54 -123 -61 -50
-8 -3143 -10 -3148 -2 -4 7 390 392 406 397 6 2 10 10 10 18 0 8 3 14 8 14 4
0 18 10 32 23 45 40 59 49 97 63 54 19 2559 20 2614 1z m145 -1056 l32 -1 -14
-38 c-7 -20 -13 -45 -14 -55 0 -9 -4 -25 -9 -35 -5 -9 -17 -39 -27 -67 -36
-105 -129 -268 -204 -360 -58 -70 -191 -194 -265 -247 -112 -79 -333 -187
-349 -171 -3 4 -6 2 -6 -4 0 -5 -6 -10 -12 -10 -7 0 -40 -8 -73 -16 -60 -16
-75 -19 -185 -34 -69 -10 -5651 -9 -5705 1 -22 4 -53 10 -70 12 -16 3 -37 6
-45 8 -114 19 -399 133 -422 170 -4 6 -8 7 -8 1 0 -7 -3 -7 -8 0 -4 6 -33 28
-66 50 -64 44 -256 225 -256 243 0 5 -4 12 -9 14 -22 8 -188 289 -192 325 0 5
-7 23 -15 42 -8 18 -14 39 -14 45 0 7 -7 34 -16 59 -9 26 -14 53 -11 60 3 9
836 12 3968 10 2180 -1 3978 -2 3995 -2z"/>
<path d="M3456 6334 c-51 -16 -60 -22 -108 -69 -67 -66 -93 -179 -62 -268 63
-179 286 -241 425 -118 82 72 111 167 82 271 -13 50 -55 120 -75 128 -5 2 -16
11 -25 20 -9 10 -19 17 -22 18 -3 0 -19 6 -34 12 -48 20 -128 23 -181 6z"/>
<path d="M5004 6333 c-50 -17 -119 -74 -140 -115 -23 -44 -27 -65 -30 -139 -2
-52 2 -74 22 -112 25 -50 66 -97 84 -97 5 0 10 -4 10 -9 0 -9 73 -42 88 -40 4
1 9 0 12 -1 19 -8 81 -5 116 6 113 34 190 132 195 249 2 38 -9 96 -21 111 -6
6 -8 13 -5 16 10 10 -91 105 -130 123 -50 23 -147 27 -201 8z"/>
<path d="M6550 6331 c-164 -67 -218 -285 -104 -420 50 -60 126 -94 209 -93
102 0 201 66 242 162 19 43 20 154 3 195 -7 17 -13 33 -12 38 1 4 -2 7 -8 7
-6 0 -10 5 -10 12 0 23 -94 94 -140 106 -49 13 -139 9 -180 -7z"/>
<path d="M2654 5584 c-42 -20 -123 -89 -124 -105 0 -4 -8 -24 -17 -45 -39 -92
-2 -231 79 -296 153 -121 369 -57 426 127 13 41 6 150 -12 186 -20 42 -70 98
-106 121 -66 40 -177 45 -246 12z"/>
<path d="M4210 5584 c-49 -22 -130 -98 -130 -120 0 -7 -6 -24 -14 -38 -18 -35
-14 -141 7 -186 38 -81 77 -117 159 -146 131 -47 268 9 325 134 83 180 -36
372 -234 378 -47 1 -75 -4 -113 -22z"/>
<path d="M5805 5600 c-81 -18 -155 -88 -183 -170 -42 -127 1 -246 118 -321 45
-29 166 -42 209 -23 9 4 19 8 22 8 25 4 80 46 107 82 86 112 78 249 -20 355
-56 60 -163 89 -253 69z"/>
<path d="M7351 5598 c-99 -27 -176 -119 -187 -224 -2 -25 -7 -50 -10 -55 -3
-5 -1 -9 3 -9 5 0 10 -11 11 -25 8 -101 139 -212 247 -208 106 3 126 11 201
80 75 69 97 187 55 295 -17 43 -81 107 -130 130 -51 23 -138 31 -190 16z"/>
</g>
</svg>
