<?xml version="1.0" encoding="utf-8"?>
<!-- Generator: Adobe Illustrator 25.0.1, SVG Export Plug-In . SVG Version: 6.00 Build 0)  -->
<svg version="1.1" id="Layer_1" xmlns="http://www.w3.org/2000/svg" xmlns:xlink="http://www.w3.org/1999/xlink" x="0px" y="0px"
	 viewBox="0 0 1440 100" style="enable-background:new 0 0 1440 100;" xml:space="preserve">
<style type="text/css">
	.st0{fill:#FFE22C;}
	.st1{fill:#7D3AFF;}
	.st2{fill:#FA00E7;}
</style>
<g>
	<path d="M600.5,52.78l-2.75,4.29v13.95h-7.74v-44.8h7.74v18.37l2.62-5.25l7.49-13.12h9.09l-12.03,19.52l13.95,25.28h-8.96
		L600.5,52.78z"/>
	<path d="M643.96,37.16l-10.5,35.58c-1.66,5.89-4.29,10.37-9.66,10.37h-3.9v-7.3h2.37c2.37,0,3.2-1.6,4.03-4.42l1.09-3.84
		l-10.94-30.4h7.87l6.27,19.52l5.63-19.52H643.96z"/>
	<path d="M643,64.3c3.14,0,3.84-2.62,4.29-7.3c0.45-4.03,1.02-13.05,1.22-19.84h20.93v33.85h-7.49V44.14h-6.21
		c-0.13,3.39-0.45,10.11-1.02,14.27c-0.96,8.96-4.67,13.18-11.71,13.18V64.3z"/>
	<path d="M699.89,59.56c0,6.85-4.61,11.46-11.2,11.46h-12.35V37.16h7.55v11.2h4.8C695.29,48.36,699.89,52.84,699.89,59.56z
		 M692.28,59.56c0-2.88-1.73-4.48-4.54-4.48h-3.84v9.15h3.84C690.55,64.23,692.28,62.51,692.28,59.56z"/>
	<path d="M720.18,44.33h-7.29v26.69h-7.55V44.33h-7.36v-7.17h22.21V44.33z"/>
	<path d="M749.56,71.02h-3.97V29.93h-15.93v41.08h-3.97v-44.8h23.87V71.02z"/>
	<path d="M778.74,37.42l-11.33,37.69c-1.47,4.99-3.39,8.13-8,8.13h-2.18v-3.71h1.66c2.94,0,3.9-2.24,4.74-4.99l2.11-6.91L755,37.42
		h4.03l8.38,24.51l7.36-24.51H778.74z"/>
	<path d="M778.74,67.63c3.97,0,4.67-5.44,5.12-12.16c0.38-6.21,0.51-11.78,0.64-18.05h17.28v33.6h-3.78V41h-9.79
		c-0.13,4.99-0.45,11.39-0.64,15.04c-0.58,10.11-2.82,15.23-8.83,15.23V67.63z"/>
	<path d="M831.16,60.07c0,6.4-4.93,10.94-11.01,10.94h-9.92v-33.6h3.78v11.84h6.14C826.23,49.26,831.16,53.74,831.16,60.07z
		 M827.32,60.07c0-4.35-3.14-7.17-7.17-7.17h-6.14v14.46h6.14C824.18,67.37,827.32,64.49,827.32,60.07z"/>
	<path d="M850.23,40.94h-8.32v30.08h-3.78V40.94h-8.32v-3.52h20.42V40.94z"/>
</g>
<rect x="859.42" y="61.09" class="st0" width="700" height="10"/>
<rect x="859.42" y="44.09" class="st1" width="700" height="10"/>
<rect x="859.42" y="26.09" class="st2" width="700" height="10"/>
<rect x="-120.08" y="61.09" class="st0" width="700" height="10"/>
<rect x="-120.08" y="44.09" class="st1" width="700" height="10"/>
<rect x="-120.08" y="26.09" class="st2" width="700" height="10"/>
</svg>
