<svg width="15" height="13" viewBox="0 0 15 13" fill="none" xmlns="http://www.w3.org/2000/svg">
	<path fill-rule="evenodd" clip-rule="evenodd" d="M8.03918 1.34689C8.52733 0.858736 9.31879 0.858734 9.80695 1.34689L14.0762 5.61612C14.3106 5.85054 14.4423 6.16848 14.4423 6.5C14.4423 6.83153 14.3106 7.14947 14.0762 7.38389L9.80695 11.6531C9.31879 12.1413 8.52733 12.1413 8.03918 11.6531C7.55102 11.165 7.55103 10.3735 8.03918 9.88535L10.1745 7.75H1.80768C1.11732 7.75 0.557678 7.19036 0.557678 6.5C0.557678 5.80965 1.11732 5.25 1.80768 5.25H10.1745L8.03918 3.11466C7.55103 2.62651 7.55102 1.83505 8.03918 1.34689Z" fill="white" />
</svg>
