<?xml version="1.0" encoding="utf-8"?>
<!-- Generator: Adobe Illustrator 25.0.1, SVG Export Plug-In . SVG Version: 6.00 Build 0)  -->
<svg version="1.1" id="Layer_1" xmlns="http://www.w3.org/2000/svg" xmlns:xlink="http://www.w3.org/1999/xlink" x="0px" y="0px"
	 viewBox="0 0 340 100" style="enable-background:new 0 0 340 100;" xml:space="preserve">
<style type="text/css">
	.st0{fill:#FFE22C;}
	.st1{fill:#7D3AFF;}
	.st2{fill:#FA00E7;}
</style>
<g>
	<path d="M77.02,52.72l-2.75,4.29v13.95h-7.74v-44.8h7.74v18.37l2.62-5.25l7.49-13.12h9.09L81.43,45.68l13.95,25.28h-8.96
		L77.02,52.72z"/>
	<path d="M120.47,37.11l-10.5,35.58c-1.66,5.89-4.29,10.37-9.66,10.37h-3.9v-7.3h2.37c2.37,0,3.2-1.6,4.03-4.42l1.09-3.84
		l-10.94-30.4h7.87l6.27,19.52l5.63-19.52H120.47z"/>
	<path d="M119.51,64.24c3.14,0,3.84-2.62,4.29-7.3c0.45-4.03,1.02-13.05,1.22-19.84h20.93v33.85h-7.49V44.08h-6.21
		c-0.13,3.39-0.45,10.11-1.02,14.27c-0.96,8.96-4.67,13.18-11.71,13.18V64.24z"/>
	<path d="M176.41,59.5c0,6.85-4.61,11.46-11.2,11.46h-12.35V37.11h7.55v11.2h4.8C171.8,48.31,176.41,52.78,176.41,59.5z
		 M168.79,59.5c0-2.88-1.73-4.48-4.54-4.48h-3.84v9.15h3.84C167.06,64.18,168.79,62.45,168.79,59.5z"/>
	<path d="M196.69,44.27h-7.29v26.69h-7.55V44.27h-7.36v-7.17h22.21V44.27z"/>
	<path d="M226.07,70.96h-3.97V29.87h-15.93v41.08h-3.97v-44.8h23.87V70.96z"/>
	<path d="M255.25,37.36l-11.33,37.69c-1.47,4.99-3.39,8.13-8,8.13h-2.18v-3.71h1.66c2.94,0,3.9-2.24,4.74-4.99l2.11-6.91
		l-10.75-30.21h4.03l8.38,24.51l7.36-24.51H255.25z"/>
	<path d="M255.26,67.57c3.97,0,4.67-5.44,5.12-12.16c0.38-6.21,0.51-11.78,0.64-18.05h17.28v33.6h-3.78V40.95h-9.79
		c-0.13,4.99-0.45,11.39-0.64,15.04c-0.58,10.11-2.82,15.23-8.83,15.23V67.57z"/>
	<path d="M307.67,60.02c0,6.4-4.93,10.94-11.01,10.94h-9.92v-33.6h3.78V49.2h6.14C302.74,49.2,307.67,53.68,307.67,60.02z
		 M303.83,60.02c0-4.35-3.14-7.17-7.17-7.17h-6.14v14.46h6.14C300.69,67.31,303.83,64.43,303.83,60.02z"/>
	<path d="M326.74,40.88h-8.32v30.08h-3.78V40.88h-8.32v-3.52h20.42V40.88z"/>
</g>
<rect x="10" y="61" class="st0" width="45" height="10"/>
<rect x="10" y="44" class="st1" width="45" height="10"/>
<rect x="10" y="26" class="st2" width="45" height="10"/>
</svg>
