<?xml version="1.0" encoding="UTF-8" standalone="no"?>
<svg
   xmlns:dc="http://purl.org/dc/elements/1.1/"
   xmlns:cc="http://creativecommons.org/ns#"
   xmlns:rdf="http://www.w3.org/1999/02/22-rdf-syntax-ns#"
   xmlns:svg="http://www.w3.org/2000/svg"
   xmlns="http://www.w3.org/2000/svg"
   xmlns:sodipodi="http://sodipodi.sourceforge.net/DTD/sodipodi-0.dtd"
   xmlns:inkscape="http://www.inkscape.org/namespaces/inkscape"
   id="Layer_1"
   data-name="Layer 1"
   viewBox="0 0 466 500"
   version="1.1"
   sodipodi:docname="logo.svg"
   inkscape:version="1.0.1 (3bc2e813f5, 2020-09-07)">
  <metadata
     id="metadata27">
    <rdf:RDF>
      <cc:Work
         rdf:about="">
        <dc:format>image/svg+xml</dc:format>
        <dc:type
           rdf:resource="http://purl.org/dc/dcmitype/StillImage" />
      </cc:Work>
    </rdf:RDF>
  </metadata>
  <sodipodi:namedview
     pagecolor="#ffffff"
     bordercolor="#666666"
     borderopacity="1"
     objecttolerance="10"
     gridtolerance="10"
     guidetolerance="10"
     inkscape:pageopacity="0"
     inkscape:pageshadow="2"
     inkscape:window-width="1920"
     inkscape:window-height="1017"
     id="namedview25"
     showgrid="false"
     inkscape:zoom="0.60104076"
     inkscape:cx="831.85053"
     inkscape:cy="350.46711"
     inkscape:window-x="1272"
     inkscape:window-y="-8"
     inkscape:window-maximized="1"
     inkscape:current-layer="Layer_1" />
  <defs
     id="defs4">
    <style
       id="style2">
			.cls-6{
			fill:#f1813b;
			}
		</style>
  </defs>
  <circle
     class="cls-6"
     cx="237.74936"
     cy="195.88257"
     r="13.37"
     id="circle6" />
  <circle
     class="cls-6"
     cx="198.95938"
     cy="232.92255"
     r="13.37"
     id="circle8" />
  <circle
     class="cls-6"
     cx="121.15936"
     cy="232.93256"
     r="13.37"
     id="circle10" />
  <circle
     class="cls-6"
     cx="276.58936"
     cy="232.91254"
     r="13.37"
     id="circle12" />
  <circle
     class="cls-6"
     cx="354.35938"
     cy="232.92255"
     r="13.37"
     id="circle14" />
  <circle
     class="cls-6"
     cx="315.49936"
     cy="195.86255"
     r="13.37"
     id="circle16" />
  <circle
     class="cls-6"
     cx="159.94937"
     cy="195.98254"
     r="13.37"
     id="circle18" />
  <path
     class="cls-6"
     d="m 345.84937,145.56254 c 7.71,0 6.76,-7.79 6.76,-13.21 v -34.15 l 49.4,-8.419998 a 17.51,17.51 0 0 0 2.37,-33.95 l -166.53,-52.9999994 a 17.35,17.35 0 0 0 -10.62,0 L 60.689368,55.832542 a 17.57,17.57 0 0 0 -5.46,30.57 v 44.659998 h -0.41 a 17,17 0 0 0 -17,17 v 22.17 l -11,64.44 a 18.28,18.28 0 0 0 18,21.35 h 37.19 a 18.28,18.28 0 0 0 18.000002,-21.35 l -11.000002,-64.44 v -22.16 a 17,17 0 0 0 -17,-17 h -0.4 V 91.252542 l 40.830002,6.999998 v 34.15 c 0,5.39 -0.1,13.19 6.74,13.19 m -37.170002,94.01 h -37.15 a 1.84,1.84 0 0 1 -1.83,-2.16 l 9.98,-58.29 h 21 l 9.93,58.28 a 1.86,1.86 0 0 1 -1.93,2.17 z m -9.38,-91.53 v 21.16 h -18.39 v -21.16 a 0.58,0.58 0 0 1 0.58,-0.58 h 17.24 a 0.58,0.58 0 0 1 0.59,0.58 z m -7,-76.589998 166.550002,-53 a 1.06,1.06 0 0 1 0.66,0 l 166.54,53 a 0.92,0.92 0 0 1 0.75,1.12 c -0.06,0.85 -0.54,0.93 -0.9,1 l -55.03,9.39 -20.68,-2.56 a 8.2111205,8.2111205 0 0 0 -2,16.3 l 14.68,1.819998 v 33.67 h -207.29 v -33.69 l 85,-10.519998 a 152,152 0 0 1 37.29,0 l 32.16,4 a 8.2111205,8.2111205 0 0 0 2,-16.3 l -32.16,-4 a 169.09,169.09 0 0 0 -41.33,0 l -91,11.26 -55.060002,-9.38 c -0.36,-0.06 -0.84,-0.14 -0.9,-1 a 0.92,0.92 0 0 1 0.75,-1.12 z"
     id="path20" />
  <path
     class="cls-6"
     d="m 454.23937,379.99254 a 39.92,39.92 0 0 0 3.81,-18 c -0.37,-17.05 -11.8,-31.58 -27.37,-37 v -29 h 14.25 a 13.36,13.36 0 0 0 13.36,-13.37 c 0,-82.57 -67.18,-149.75 -149.75,-149.75 h -156.53 a 148.9,148.9 0 0 0 -79.210002,22.71 c 0.22,5.91 0.81,17.19 2.43,31 a 122.48,122.48 0 0 1 76.780002,-27 h 156.53 c 63.31,0 115.61,48.09 122.3,109.66 H 29.669368 a 122,122 0 0 1 16.27,-49 l 8.7,-51.4 a 149.48,149.48 0 0 0 -52.4300001,113.8 13.36,13.36 0 0 0 13.3700001,13.35 h 13.78 v 28.77 a 40.17,40.17 0 0 0 -27.3500001,38.94 39.12,39.12 0 0 0 4,16.47 13.32,13.32 0 0 0 -3.83,9.37 92.51,92.51 0 0 0 92.4400001,92.45 H 365.87937 a 92.51,92.51 0 0 0 92.41,-92.41 13.32,13.32 0 0 0 -4,-9.59 z m -398.140002,-84 H 403.94937 v 26.71 h -109.56 a 37.47,37.47 0 0 0 -26.23,10.64 l -38.6,37.45 -37.55,-37.16 a 37.41,37.41 0 0 0 -26.51,-10.91 H 56.099368 Z m -27.38,67.1 a 13.36,13.36 0 0 1 13.35,-13.65 H 165.54937 a 10.85,10.85 0 0 1 7.65,3.16 l 23.81,23.56 H 42.599368 c -7.49,0 -13.72,-5.85 -13.88,-13.05 z m 337.160002,92.1 H 94.619368 a 65.79,65.79 0 0 1 -64.31,-52.31 H 430.18937 a 65.78,65.78 0 0 1 -64.31,52.33 z m 52.1,-79 h -155.54 l 24.34,-23.61 a 10.84,10.84 0 0 1 7.57,-3.09 h 123.09 c 7.5,0 13.72,5.85 13.88,13 a 13.33,13.33 0 0 1 -13.31,13.67 z"
     id="path22" />
</svg>
